<svg width="94" height="35" viewBox="0 0 94 35" fill="none" xmlns="http://www.w3.org/2000/svg">
<path d="M22.32 19.332V16.272H16.38V18.468H1.22339e-05V1.44H4.96801V6.33601H11.412V2.628H16.38V4.392H22.32V5.48363e-06H27.576V19.332H22.32ZM10.26 27.288C10.26 26.28 10.476 25.344 10.908 24.408C11.304 23.544 11.88 22.752 12.636 22.068C13.356 21.42 14.184 20.916 15.192 20.484C16.164 20.124 17.208 19.908 18.36 19.908C19.44 19.908 20.484 20.124 21.492 20.484C22.464 20.916 23.328 21.42 24.12 22.068C24.84 22.752 25.416 23.544 25.848 24.408C26.244 25.344 26.46 26.28 26.46 27.288C26.46 28.332 26.244 29.304 25.848 30.204C25.416 31.068 24.84 31.86 24.12 32.508C23.328 33.156 22.464 33.696 21.492 34.092C20.484 34.452 19.44 34.668 18.36 34.668C17.208 34.668 16.164 34.452 15.192 34.092C14.184 33.696 13.356 33.156 12.636 32.508C11.88 31.86 11.304 31.068 10.908 30.204C10.476 29.304 10.26 28.332 10.26 27.288ZM15.12 27.288C15.12 28.116 15.408 28.8 16.056 29.376C16.668 29.952 17.424 30.24 18.36 30.24C19.224 30.24 20.016 29.952 20.664 29.376C21.276 28.8 21.6 28.116 21.6 27.288C21.6 26.496 21.276 25.812 20.664 25.236C20.016 24.66 19.224 24.372 18.36 24.372C17.424 24.372 16.668 24.66 16.056 25.236C15.408 25.812 15.12 26.496 15.12 27.288ZM11.412 10.8H4.96801V14.04H11.412V10.8ZM16.38 11.88H22.32V8.82001H16.38V11.88ZM52.7718 5.76V9.612H40.2438V11.052H54.6438V14.832H35.2758V0.432004H53.6718V4.32001H40.2438V5.76H52.7718ZM34.5918 22.608H54.7158V33.552H49.4238V26.892H34.5918V22.608ZM31.2078 20.772V16.56H58.0278V20.772H31.2078ZM61.839 26.092C62.239 26.092 62.575 26.236 62.831 26.492C63.071 26.764 63.199 27.084 63.199 27.436C63.199 27.82 63.071 28.124 62.831 28.38C62.575 28.652 62.239 28.78 61.839 28.78C61.455 28.78 61.135 28.652 60.895 28.38C60.639 28.124 60.527 27.82 60.527 27.436C60.527 27.084 60.639 26.764 60.895 26.492C61.135 26.236 61.455 26.092 61.839 26.092ZM70.9533 22.172C70.2013 21.852 69.5933 21.676 69.1293 21.676C68.8093 21.676 68.5373 21.756 68.3133 21.884C68.0573 22.028 67.8493 22.204 67.6893 22.428C67.5133 22.684 67.3853 22.956 67.3213 23.244C67.2253 23.564 67.1933 23.884 67.1933 24.22C67.1933 24.54 67.2253 24.86 67.3053 25.148C67.3693 25.452 67.4813 25.708 67.6413 25.932C67.8013 26.188 68.0093 26.396 68.2813 26.524C68.5373 26.684 68.8413 26.764 69.2093 26.78C69.4333 26.78 69.7053 26.716 70.0413 26.572C70.3613 26.444 70.6813 26.252 71.0333 25.98L71.1933 28.028C70.7453 28.268 70.3453 28.412 70.0093 28.46C69.6573 28.524 69.3373 28.54 69.0813 28.54C68.4573 28.54 67.8973 28.428 67.4013 28.188C66.8893 27.964 66.4413 27.644 66.0893 27.26C65.7053 26.876 65.4173 26.412 65.2253 25.884C65.0173 25.372 64.9213 24.812 64.9213 24.22C64.9213 23.596 65.0173 23.02 65.2253 22.476C65.4173 21.964 65.6893 21.5 66.0733 21.116C66.4253 20.732 66.8573 20.444 67.3853 20.22C67.8973 20.012 68.4573 19.9 69.0813 19.9C69.3853 19.9 69.7373 19.948 70.1373 20.028C70.5213 20.124 70.8573 20.22 71.1293 20.332L70.9533 22.172ZM72.1519 24.22C72.1519 23.596 72.2479 23.02 72.4559 22.476C72.6479 21.964 72.9039 21.5 73.2559 21.116C73.6239 20.732 74.0719 20.444 74.5839 20.22C75.0799 20.012 75.6559 19.9 76.2959 19.9C76.9199 19.9 77.4799 20.012 77.9919 20.22C78.4879 20.444 78.9199 20.732 79.3039 21.116C79.6399 21.5 79.9119 21.964 80.1199 22.476C80.3119 23.02 80.4239 23.596 80.4239 24.22C80.4239 24.812 80.3119 25.372 80.1199 25.884C79.9119 26.412 79.6239 26.876 79.2559 27.26C78.8879 27.644 78.4559 27.964 77.9759 28.188C77.4639 28.428 76.9039 28.54 76.2959 28.54C75.6559 28.54 75.0959 28.428 74.5999 28.188C74.0879 27.964 73.6399 27.644 73.2719 27.26C72.9199 26.876 72.6479 26.412 72.4559 25.884C72.2479 25.372 72.1519 24.812 72.1519 24.22ZM74.3759 24.22C74.3759 24.54 74.4079 24.86 74.5039 25.148C74.5679 25.468 74.6799 25.724 74.8399 25.948C74.9839 26.204 75.1919 26.396 75.4479 26.54C75.6879 26.7 75.9759 26.78 76.2959 26.78C76.5999 26.78 76.8719 26.7 77.1279 26.524C77.3519 26.364 77.5599 26.172 77.7199 25.948C77.8639 25.724 77.9759 25.452 78.0719 25.132C78.1359 24.828 78.1839 24.524 78.1839 24.22C78.1839 23.916 78.1359 23.596 78.0559 23.276C77.9599 22.956 77.8319 22.684 77.6719 22.428C77.4959 22.22 77.2879 22.044 77.0639 21.884C76.8239 21.756 76.5679 21.676 76.2959 21.676C76.0079 21.676 75.7359 21.756 75.5119 21.884C75.2559 22.028 75.0639 22.204 74.9039 22.428C74.7439 22.684 74.6159 22.956 74.5199 23.244C74.4239 23.564 74.3759 23.884 74.3759 24.22ZM81.7882 20.076H83.8682V20.508C84.3642 20.108 85.0202 19.9 85.8362 19.9C86.2202 19.9 86.6042 19.996 86.9882 20.172C87.3562 20.364 87.6762 20.62 87.9482 20.94C88.0922 20.796 88.2682 20.636 88.4922 20.476C88.7002 20.316 88.8922 20.204 89.0682 20.108C89.2762 20.044 89.4842 19.98 89.6922 19.948C89.8842 19.916 90.0442 19.9 90.1882 19.9C90.7482 19.9 91.2122 19.98 91.5962 20.14C91.9482 20.3 92.2522 20.524 92.4762 20.812C92.7002 21.132 92.8762 21.484 92.9882 21.868C93.0842 22.268 93.1322 22.7 93.1322 23.148V28.54H90.9882V23.468C90.9882 23.292 90.9722 23.1 90.9562 22.876C90.9242 22.668 90.8762 22.46 90.8122 22.268C90.7482 22.108 90.6522 21.964 90.5242 21.836C90.3802 21.74 90.2362 21.676 90.0762 21.676C89.5482 21.676 89.1642 21.948 88.9082 22.476C88.7802 22.7 88.7002 22.972 88.6522 23.26C88.5882 23.564 88.5562 23.868 88.5562 24.188V28.54H86.3962V23.468C86.3962 23.292 86.3802 23.1 86.3642 22.876C86.3322 22.668 86.3002 22.46 86.2362 22.268C86.1402 22.108 86.0442 21.964 85.9322 21.836C85.8042 21.74 85.6602 21.676 85.5002 21.676C85.2442 21.676 85.0202 21.756 84.8282 21.9C84.6362 22.06 84.4602 22.252 84.3162 22.476C84.2042 22.7 84.1242 22.972 84.0762 23.276C84.0122 23.596 83.9802 23.9 83.9802 24.188V28.54H81.7882V20.076Z" fill="black"/>
</svg>
